<svg width="48" height="48" viewBox="0 0 48 48" fill="none" xmlns="http://www.w3.org/2000/svg">
<circle cx="24" cy="24" r="24" fill="#F8F8F8"/>
<mask id="mask0_14_184" style="mask-type:alpha" maskUnits="userSpaceOnUse" x="12" y="12" width="24" height="24">
<rect x="12" y="12" width="24" height="24" fill="#D9D9D9"/>
</mask>
<g mask="url(#mask0_14_184)">
<path d="M31.95 27.95L30.4 26.4C31.1333 25.7167 31.7083 24.9083 32.125 23.975C32.5417 23.0417 32.75 22.05 32.75 21C32.75 19.95 32.5417 18.9667 32.125 18.05C31.7083 17.1333 31.1333 16.3333 30.4 15.65L31.95 14.05C32.8833 14.9333 33.625 15.975 34.175 17.175C34.725 18.375 35 19.65 35 21C35 22.35 34.725 23.625 34.175 24.825C33.625 26.025 32.8833 27.0667 31.95 27.95ZM28.75 24.75L27.15 23.15C27.45 22.8667 27.6917 22.5458 27.875 22.1875C28.0583 21.8292 28.15 21.4333 28.15 21C28.15 20.5667 28.0583 20.1708 27.875 19.8125C27.6917 19.4542 27.45 19.1333 27.15 18.85L28.75 17.25C29.2833 17.7333 29.7 18.2958 30 18.9375C30.3 19.5792 30.45 20.2667 30.45 21C30.45 21.7333 30.3 22.4208 30 23.0625C29.7 23.7042 29.2833 24.2667 28.75 24.75ZM21 25C19.9 25 18.9583 24.6083 18.175 23.825C17.3917 23.0417 17 22.1 17 21C17 19.9 17.3917 18.9583 18.175 18.175C18.9583 17.3917 19.9 17 21 17C22.1 17 23.0417 17.3917 23.825 18.175C24.6083 18.9583 25 19.9 25 21C25 22.1 24.6083 23.0417 23.825 23.825C23.0417 24.6083 22.1 25 21 25ZM13 33V30.2C13 29.65 13.1417 29.1333 13.425 28.65C13.7083 28.1667 14.1 27.8 14.6 27.55C15.45 27.1167 16.4083 26.75 17.475 26.45C18.5417 26.15 19.7167 26 21 26C22.2833 26 23.4583 26.15 24.525 26.45C25.5917 26.75 26.55 27.1167 27.4 27.55C27.9 27.8 28.2917 28.1667 28.575 28.65C28.8583 29.1333 29 29.65 29 30.2V33H13ZM15 31H27V30.2C27 30.0167 26.9542 29.85 26.8625 29.7C26.7708 29.55 26.65 29.4333 26.5 29.35C25.9 29.05 25.1292 28.75 24.1875 28.45C23.2458 28.15 22.1833 28 21 28C19.8167 28 18.7542 28.15 17.8125 28.45C16.8708 28.75 16.1 29.05 15.5 29.35C15.35 29.4333 15.2292 29.55 15.1375 29.7C15.0458 29.85 15 30.0167 15 30.2V31ZM21 23C21.55 23 22.0208 22.8042 22.4125 22.4125C22.8042 22.0208 23 21.55 23 21C23 20.45 22.8042 19.9792 22.4125 19.5875C22.0208 19.1958 21.55 19 21 19C20.45 19 19.9792 19.1958 19.5875 19.5875C19.1958 19.9792 19 20.45 19 21C19 21.55 19.1958 22.0208 19.5875 22.4125C19.9792 22.8042 20.45 23 21 23Z" fill="black"/>
</g>
</svg>
