<svg width="48" height="48" viewBox="0 0 48 48" fill="none" xmlns="http://www.w3.org/2000/svg">
<mask id="mask0_14_95" style="mask-type:alpha" maskUnits="userSpaceOnUse" x="0" y="0" width="48" height="48">
<rect width="48" height="48" fill="#D9D9D9"/>
</mask>
<g mask="url(#mask0_14_95)">
<path d="M22.0024 10.0027V2.00266H26.0024V10.0027H22.0024ZM35.3024 15.5027L32.5524 12.7527L38.1524 7.00266L40.9524 9.85266L35.3024 15.5027ZM38.0024 26.0027V22.0027H46.0024V26.0027H38.0024ZM22.0024 46.0027V38.0027H26.0024V46.0027H22.0024ZM12.7024 15.4027L7.00244 9.85266L9.85244 7.05266L15.5024 12.7027L12.7024 15.4027ZM38.1024 41.0027L32.5524 35.2527L35.2524 32.5527L40.9524 38.0527L38.1024 41.0027ZM2.00244 26.0027V22.0027H10.0024V26.0027H2.00244ZM9.85244 41.0027L7.05244 38.1527L12.6524 32.5527L14.1024 33.9027L15.5524 35.3027L9.85244 41.0027ZM24.0024 36.0027C20.6691 36.0027 17.8358 34.836 15.5024 32.5027C13.1691 30.1693 12.0024 27.336 12.0024 24.0027C12.0024 20.6693 13.1691 17.836 15.5024 15.5027C17.8358 13.1693 20.6691 12.0027 24.0024 12.0027C27.3358 12.0027 30.1691 13.1693 32.5024 15.5027C34.8358 17.836 36.0024 20.6693 36.0024 24.0027C36.0024 27.336 34.8358 30.1693 32.5024 32.5027C30.1691 34.836 27.3358 36.0027 24.0024 36.0027Z" fill="#E46E00"/>
</g>
</svg>
