<svg width="104" height="25" viewBox="0 0 104 25" fill="none" xmlns="http://www.w3.org/2000/svg">
<path d="M0.632 5.12V0.639999H6.968V5.12H0.632ZM0.76 24V6.688H6.84V24H0.76ZM19.1538 24.16L10.0657 1.6H17.0097L22.0978 15.776L27.1858 1.6H34.0017L24.9138 24.16H19.1538ZM39.652 24.384C36.356 24.384 33.828 22.496 33.828 19.04V18.976C33.828 15.392 36.548 13.536 40.612 13.536C42.212 13.536 43.78 13.856 44.772 14.208V13.92C44.772 12.128 43.652 11.104 41.316 11.104C39.492 11.104 38.084 11.456 36.548 12.064L35.3 7.776C37.252 6.976 39.332 6.432 42.308 6.432C45.412 6.432 47.524 7.168 48.9 8.544C50.212 9.824 50.756 11.616 50.756 14.048V24H44.74V22.208C43.556 23.52 41.924 24.384 39.652 24.384ZM41.828 20.576C43.588 20.576 44.836 19.456 44.836 17.728V16.928C44.228 16.672 43.364 16.48 42.468 16.48C40.708 16.48 39.684 17.344 39.684 18.624V18.688C39.684 19.872 40.58 20.576 41.828 20.576ZM60.0883 24.384C56.7923 24.384 54.2643 22.496 54.2643 19.04V18.976C54.2643 15.392 56.9843 13.536 61.0483 13.536C62.6483 13.536 64.2163 13.856 65.2083 14.208V13.92C65.2083 12.128 64.0883 11.104 61.7523 11.104C59.9283 11.104 58.5203 11.456 56.9843 12.064L55.7363 7.776C57.6883 6.976 59.7683 6.432 62.7443 6.432C65.8483 6.432 67.9603 7.168 69.3363 8.544C70.6483 9.824 71.1923 11.616 71.1923 14.048V24H65.1763V22.208C63.9923 23.52 62.3603 24.384 60.0883 24.384ZM62.2643 20.576C64.0243 20.576 65.2723 19.456 65.2723 17.728V16.928C64.6643 16.672 63.8003 16.48 62.9043 16.48C61.1443 16.48 60.1203 17.344 60.1203 18.624V18.688C60.1203 19.872 61.0163 20.576 62.2643 20.576ZM75.5645 24V6.688H81.6445V9.12C82.7645 7.68 84.3645 6.304 86.8285 6.304C90.5085 6.304 92.7165 8.736 92.7165 12.672V24H86.6365V14.624C86.6365 12.736 85.6445 11.712 84.2045 11.712C82.7325 11.712 81.6445 12.736 81.6445 14.624V24H75.5645ZM97.1258 5.12V0.639999H103.462V5.12H97.1258ZM97.2538 24V6.688H103.334V24H97.2538Z" fill="#37007C"/>
</svg>
