<svg width="48" height="48" viewBox="0 0 48 48" fill="none" xmlns="http://www.w3.org/2000/svg">
<circle cx="24" cy="24" r="24" fill="#F8F8F8"/>
<mask id="mask0_14_189" style="mask-type:alpha" maskUnits="userSpaceOnUse" x="12" y="12" width="24" height="24">
<rect x="12" y="12" width="24" height="24" fill="#D9D9D9"/>
</mask>
<g mask="url(#mask0_14_189)">
<path d="M24 35V33H31V32H27V24H31V23C31 21.0667 30.3167 19.4167 28.95 18.05C27.5833 16.6833 25.9333 16 24 16C22.0667 16 20.4167 16.6833 19.05 18.05C17.6833 19.4167 17 21.0667 17 23V24H21V32H17C16.45 32 15.9792 31.8042 15.5875 31.4125C15.1958 31.0208 15 30.55 15 30V23C15 21.7667 15.2375 20.6042 15.7125 19.5125C16.1875 18.4208 16.8333 17.4667 17.65 16.65C18.4667 15.8333 19.4208 15.1875 20.5125 14.7125C21.6042 14.2375 22.7667 14 24 14C25.2333 14 26.3958 14.2375 27.4875 14.7125C28.5792 15.1875 29.5333 15.8333 30.35 16.65C31.1667 17.4667 31.8125 18.4208 32.2875 19.5125C32.7625 20.6042 33 21.7667 33 23V33C33 33.55 32.8042 34.0208 32.4125 34.4125C32.0208 34.8042 31.55 35 31 35H24ZM17 30H19V26H17V30ZM29 30H31V26H29V30Z" fill="black"/>
</g>
</svg>
